solid OpenSCAD_Model
  facet normal 0.707107 0.707107 0
    outer loop
      vertex 0 0 5
      vertex -7.07107 7.07107 0
      vertex -7.07107 7.07107 5
    endloop
  endfacet
  facet normal 0.707107 0.707107 0
    outer loop
      vertex -7.07107 7.07107 0
      vertex 0 0 5
      vertex 0 0 0
    endloop
  endfacet
  facet normal 0 1 -0
    outer loop
      vertex 9.95887 0 0
      vertex 0 0 5
      vertex 9.95887 0 5
    endloop
  endfacet
  facet normal 0 1 0
    outer loop
      vertex 0 0 5
      vertex 9.95887 0 0
      vertex 0 0 0
    endloop
  endfacet
  facet normal -0.965926 0.25882 0
    outer loop
      vertex -9.87688 1.56434 0
      vertex -9.3358 3.58368 5
      vertex -9.3358 3.58368 0
    endloop
  endfacet
  facet normal -0.965926 0.25882 0
    outer loop
      vertex -9.3358 3.58368 5
      vertex -9.87688 1.56434 0
      vertex -9.87688 1.56434 5
    endloop
  endfacet
  facet normal -0.99863 0.0523356 0
    outer loop
      vertex -9.98629 -0.52336 0
      vertex -9.87688 1.56434 5
      vertex -9.87688 1.56434 0
    endloop
  endfacet
  facet normal -0.99863 0.0523356 0
    outer loop
      vertex -9.87688 1.56434 5
      vertex -9.98629 -0.52336 0
      vertex -9.98629 -0.52336 5
    endloop
  endfacet
  facet normal -0.83867 -0.544639 0
    outer loop
      vertex -7.77146 -6.2932 0
      vertex -8.91006 -4.5399 5
      vertex -8.91006 -4.5399 0
    endloop
  endfacet
  facet normal -0.83867 -0.544639 0
    outer loop
      vertex -8.91006 -4.5399 5
      vertex -7.77146 -6.2932 0
      vertex -7.77146 -6.2932 5
    endloop
  endfacet
  facet normal -0.93358 -0.358368 0
    outer loop
      vertex -8.91006 -4.5399 0
      vertex -9.65926 -2.58819 5
      vertex -9.65926 -2.58819 0
    endloop
  endfacet
  facet normal -0.93358 -0.358368 0
    outer loop
      vertex -9.65926 -2.58819 5
      vertex -8.91006 -4.5399 0
      vertex -8.91006 -4.5399 5
    endloop
  endfacet
  facet normal -0.358368 -0.933581 0
    outer loop
      vertex -4.5399 -8.91006 0
      vertex -2.58819 -9.65926 5
      vertex -4.5399 -8.91006 5
    endloop
  endfacet
  facet normal -0.358368 -0.933581 -0
    outer loop
      vertex -2.58819 -9.65926 5
      vertex -4.5399 -8.91006 0
      vertex -2.58819 -9.65926 0
    endloop
  endfacet
  facet normal -0.987688 -0.156434 0
    outer loop
      vertex -9.65926 -2.58819 0
      vertex -9.98629 -0.52336 5
      vertex -9.98629 -0.52336 0
    endloop
  endfacet
  facet normal -0.987688 -0.156434 0
    outer loop
      vertex -9.98629 -0.52336 5
      vertex -9.65926 -2.58819 0
      vertex -9.65926 -2.58819 5
    endloop
  endfacet
  facet normal -0.707107 -0.707107 0
    outer loop
      vertex -6.2932 -7.77146 0
      vertex -7.77146 -6.2932 5
      vertex -7.77146 -6.2932 0
    endloop
  endfacet
  facet normal -0.707107 -0.707107 0
    outer loop
      vertex -7.77146 -6.2932 5
      vertex -6.2932 -7.77146 0
      vertex -6.2932 -7.77146 5
    endloop
  endfacet
  facet normal 0.62932 -0.777146 0
    outer loop
      vertex 5.44639 -8.38671 0
      vertex 7.07107 -7.07107 5
      vertex 5.44639 -8.38671 5
    endloop
  endfacet
  facet normal 0.62932 -0.777146 0
    outer loop
      vertex 7.07107 -7.07107 5
      vertex 5.44639 -8.38671 0
      vertex 7.07107 -7.07107 0
    endloop
  endfacet
  facet normal 0.25882 -0.965926 0
    outer loop
      vertex 1.56434 -9.87688 0
      vertex 3.58368 -9.3358 5
      vertex 1.56434 -9.87688 5
    endloop
  endfacet
  facet normal 0.25882 -0.965926 0
    outer loop
      vertex 3.58368 -9.3358 5
      vertex 1.56434 -9.87688 0
      vertex 3.58368 -9.3358 0
    endloop
  endfacet
  facet normal -0.156435 -0.987688 0
    outer loop
      vertex -2.58819 -9.65926 0
      vertex -0.52336 -9.98629 5
      vertex -2.58819 -9.65926 5
    endloop
  endfacet
  facet normal -0.156435 -0.987688 -0
    outer loop
      vertex -0.52336 -9.98629 5
      vertex -2.58819 -9.65926 0
      vertex -0.52336 -9.98629 0
    endloop
  endfacet
  facet normal -0.544639 -0.83867 0
    outer loop
      vertex -6.2932 -7.77146 0
      vertex -4.5399 -8.91006 5
      vertex -6.2932 -7.77146 5
    endloop
  endfacet
  facet normal -0.544639 -0.83867 -0
    outer loop
      vertex -4.5399 -8.91006 5
      vertex -6.2932 -7.77146 0
      vertex -4.5399 -8.91006 0
    endloop
  endfacet
  facet normal 0.0523356 -0.99863 0
    outer loop
      vertex -0.52336 -9.98629 0
      vertex 1.56434 -9.87688 5
      vertex -0.52336 -9.98629 5
    endloop
  endfacet
  facet normal 0.0523356 -0.99863 0
    outer loop
      vertex 1.56434 -9.87688 5
      vertex -0.52336 -9.98629 0
      vertex 1.56434 -9.87688 0
    endloop
  endfacet
  facet normal -0.777146 0.62932 0
    outer loop
      vertex -8.38671 5.44639 0
      vertex -7.07107 7.07107 5
      vertex -7.07107 7.07107 0
    endloop
  endfacet
  facet normal -0.777146 0.62932 0
    outer loop
      vertex -7.07107 7.07107 5
      vertex -8.38671 5.44639 0
      vertex -8.38671 5.44639 5
    endloop
  endfacet
  facet normal 0.965926 -0.25882 0
    outer loop
      vertex 9.3358 -3.58368 5
      vertex 9.87688 -1.56434 0
      vertex 9.87688 -1.56434 5
    endloop
  endfacet
  facet normal 0.965926 -0.25882 0
    outer loop
      vertex 9.87688 -1.56434 0
      vertex 9.3358 -3.58368 5
      vertex 9.3358 -3.58368 0
    endloop
  endfacet
  facet normal -0.891007 0.45399 0
    outer loop
      vertex -9.3358 3.58368 0
      vertex -8.38671 5.44639 5
      vertex -8.38671 5.44639 0
    endloop
  endfacet
  facet normal -0.891007 0.45399 0
    outer loop
      vertex -8.38671 5.44639 5
      vertex -9.3358 3.58368 0
      vertex -9.3358 3.58368 5
    endloop
  endfacet
  facet normal -0 0 1
    outer loop
      vertex 0 0 5
      vertex 9.87688 -1.56434 5
      vertex 9.95887 0 5
    endloop
  endfacet
  facet normal 0 0 1
    outer loop
      vertex 9.87688 -1.56434 5
      vertex 0 0 5
      vertex 9.3358 -3.58368 5
    endloop
  endfacet
  facet normal 0 0 1
    outer loop
      vertex 9.3358 -3.58368 5
      vertex 0 0 5
      vertex 8.38671 -5.44639 5
    endloop
  endfacet
  facet normal 0 0 1
    outer loop
      vertex 8.38671 -5.44639 5
      vertex 0 0 5
      vertex 7.07107 -7.07107 5
    endloop
  endfacet
  facet normal 0 0 1
    outer loop
      vertex 7.07107 -7.07107 5
      vertex 0 0 5
      vertex 5.44639 -8.38671 5
    endloop
  endfacet
  facet normal 0 0 1
    outer loop
      vertex 5.44639 -8.38671 5
      vertex 0 0 5
      vertex 3.58368 -9.3358 5
    endloop
  endfacet
  facet normal 0 0 1
    outer loop
      vertex 3.58368 -9.3358 5
      vertex 0 0 5
      vertex 1.56434 -9.87688 5
    endloop
  endfacet
  facet normal 0 0 1
    outer loop
      vertex 0 0 5
      vertex -0.52336 -9.98629 5
      vertex 1.56434 -9.87688 5
    endloop
  endfacet
  facet normal 0 0 1
    outer loop
      vertex 0 0 5
      vertex -2.58819 -9.65926 5
      vertex -0.52336 -9.98629 5
    endloop
  endfacet
  facet normal 0 0 1
    outer loop
      vertex 0 0 5
      vertex -4.5399 -8.91006 5
      vertex -2.58819 -9.65926 5
    endloop
  endfacet
  facet normal 0 0 1
    outer loop
      vertex 0 0 5
      vertex -6.2932 -7.77146 5
      vertex -4.5399 -8.91006 5
    endloop
  endfacet
  facet normal -0 0 1
    outer loop
      vertex -8.38671 5.44639 5
      vertex 0 0 5
      vertex -7.07107 7.07107 5
    endloop
  endfacet
  facet normal 0 0 1
    outer loop
      vertex 0 0 5
      vertex -7.77146 -6.2932 5
      vertex -6.2932 -7.77146 5
    endloop
  endfacet
  facet normal -0 0 1
    outer loop
      vertex -9.3358 3.58368 5
      vertex 0 0 5
      vertex -8.38671 5.44639 5
    endloop
  endfacet
  facet normal 0 0 1
    outer loop
      vertex 0 0 5
      vertex -8.91006 -4.5399 5
      vertex -7.77146 -6.2932 5
    endloop
  endfacet
  facet normal -0 0 1
    outer loop
      vertex -9.87688 1.56434 5
      vertex 0 0 5
      vertex -9.3358 3.58368 5
    endloop
  endfacet
  facet normal 0 0 1
    outer loop
      vertex 0 0 5
      vertex -9.65926 -2.58819 5
      vertex -8.91006 -4.5399 5
    endloop
  endfacet
  facet normal 0 0 1
    outer loop
      vertex -9.98629 -0.52336 5
      vertex 0 0 5
      vertex -9.87688 1.56434 5
    endloop
  endfacet
  facet normal 0 0 1
    outer loop
      vertex 0 0 5
      vertex -9.98629 -0.52336 5
      vertex -9.65926 -2.58819 5
    endloop
  endfacet
  facet normal 0.45399 -0.891007 0
    outer loop
      vertex 3.58368 -9.3358 0
      vertex 5.44639 -8.38671 5
      vertex 3.58368 -9.3358 5
    endloop
  endfacet
  facet normal 0.45399 -0.891007 0
    outer loop
      vertex 5.44639 -8.38671 5
      vertex 3.58368 -9.3358 0
      vertex 5.44639 -8.38671 0
    endloop
  endfacet
  facet normal 0 0 -1
    outer loop
      vertex 0 0 0
      vertex 9.87688 -1.56434 0
      vertex 9.3358 -3.58368 0
    endloop
  endfacet
  facet normal 0 0 -1
    outer loop
      vertex 0 0 0
      vertex 9.3358 -3.58368 0
      vertex 8.38671 -5.44639 0
    endloop
  endfacet
  facet normal 0 0 -1
    outer loop
      vertex 0 0 0
      vertex 8.38671 -5.44639 0
      vertex 7.07107 -7.07107 0
    endloop
  endfacet
  facet normal 0 0 -1
    outer loop
      vertex 0 0 0
      vertex 7.07107 -7.07107 0
      vertex 5.44639 -8.38671 0
    endloop
  endfacet
  facet normal 0 0 -1
    outer loop
      vertex 0 0 0
      vertex 5.44639 -8.38671 0
      vertex 3.58368 -9.3358 0
    endloop
  endfacet
  facet normal 0 0 -1
    outer loop
      vertex 0 0 0
      vertex 3.58368 -9.3358 0
      vertex 1.56434 -9.87688 0
    endloop
  endfacet
  facet normal 0 0 -1
    outer loop
      vertex 9.87688 -1.56434 0
      vertex 0 0 0
      vertex 9.95887 0 0
    endloop
  endfacet
  facet normal 0 0 -1
    outer loop
      vertex -0.52336 -9.98629 0
      vertex 0 0 0
      vertex 1.56434 -9.87688 0
    endloop
  endfacet
  facet normal 0 0 -1
    outer loop
      vertex -2.58819 -9.65926 0
      vertex 0 0 0
      vertex -0.52336 -9.98629 0
    endloop
  endfacet
  facet normal 0 0 -1
    outer loop
      vertex -4.5399 -8.91006 0
      vertex 0 0 0
      vertex -2.58819 -9.65926 0
    endloop
  endfacet
  facet normal 0 0 -1
    outer loop
      vertex -6.2932 -7.77146 0
      vertex 0 0 0
      vertex -4.5399 -8.91006 0
    endloop
  endfacet
  facet normal 0 0 -1
    outer loop
      vertex -7.77146 -6.2932 0
      vertex 0 0 0
      vertex -6.2932 -7.77146 0
    endloop
  endfacet
  facet normal 0 0 -1
    outer loop
      vertex -8.91006 -4.5399 0
      vertex 0 0 0
      vertex -7.77146 -6.2932 0
    endloop
  endfacet
  facet normal 0 0 -1
    outer loop
      vertex 0 0 0
      vertex -8.38671 5.44639 0
      vertex -7.07107 7.07107 0
    endloop
  endfacet
  facet normal 0 0 -1
    outer loop
      vertex -9.65926 -2.58819 0
      vertex 0 0 0
      vertex -8.91006 -4.5399 0
    endloop
  endfacet
  facet normal 0 0 -1
    outer loop
      vertex 0 0 0
      vertex -9.3358 3.58368 0
      vertex -8.38671 5.44639 0
    endloop
  endfacet
  facet normal 0 0 -1
    outer loop
      vertex -9.98629 -0.52336 0
      vertex 0 0 0
      vertex -9.65926 -2.58819 0
    endloop
  endfacet
  facet normal 0 0 -1
    outer loop
      vertex 0 0 0
      vertex -9.87688 1.56434 0
      vertex -9.3358 3.58368 0
    endloop
  endfacet
  facet normal -0 0 -1
    outer loop
      vertex 0 0 0
      vertex -9.98629 -0.52336 0
      vertex -9.87688 1.56434 0
    endloop
  endfacet
  facet normal 0.891007 -0.45399 0
    outer loop
      vertex 8.38671 -5.44639 5
      vertex 9.3358 -3.58368 0
      vertex 9.3358 -3.58368 5
    endloop
  endfacet
  facet normal 0.891007 -0.45399 0
    outer loop
      vertex 9.3358 -3.58368 0
      vertex 8.38671 -5.44639 5
      vertex 8.38671 -5.44639 0
    endloop
  endfacet
  facet normal 0.777146 -0.62932 0
    outer loop
      vertex 7.07107 -7.07107 5
      vertex 8.38671 -5.44639 0
      vertex 8.38671 -5.44639 5
    endloop
  endfacet
  facet normal 0.777146 -0.62932 0
    outer loop
      vertex 8.38671 -5.44639 0
      vertex 7.07107 -7.07107 5
      vertex 7.07107 -7.07107 0
    endloop
  endfacet
  facet normal 0.99863 -0.0523352 0
    outer loop
      vertex 9.87688 -1.56434 5
      vertex 9.95887 0 0
      vertex 9.95887 0 5
    endloop
  endfacet
  facet normal 0.99863 -0.0523352 0
    outer loop
      vertex 9.95887 0 0
      vertex 9.87688 -1.56434 5
      vertex 9.87688 -1.56434 0
    endloop
  endfacet
  facet normal 0.857167 0.515038 0
    outer loop
      vertex 13.5946 6.33927 10
      vertex 11.9795 9.02723 0
      vertex 11.9795 9.02723 10
    endloop
  endfacet
  facet normal 0.857167 0.515038 0
    outer loop
      vertex 11.9795 9.02723 0
      vertex 13.5946 6.33927 10
      vertex 13.5946 6.33927 0
    endloop
  endfacet
  facet normal 0.573575 0.819153 -0
    outer loop
      vertex 9.84089 11.3206 0
      vertex 9.62562 11.4714 10
      vertex 9.84089 11.3206 10
    endloop
  endfacet
  facet normal 0.573575 0.819153 0
    outer loop
      vertex 9.62562 11.4714 10
      vertex 9.84089 11.3206 0
      vertex 9.62562 11.4714 0
    endloop
  endfacet
  facet normal 0.731354 0.681998 0
    outer loop
      vertex 11.9795 9.02723 10
      vertex 9.84089 11.3206 0
      vertex 9.84089 11.3206 10
    endloop
  endfacet
  facet normal 0.731354 0.681998 0
    outer loop
      vertex 9.84089 11.3206 0
      vertex 11.9795 9.02723 10
      vertex 11.9795 9.02723 0
    endloop
  endfacet
  facet normal 0 0 1
    outer loop
      vertex 0 0 10
      vertex 11.9795 9.02723 10
      vertex 9.84089 11.3206 10
    endloop
  endfacet
  facet normal 0 0 1
    outer loop
      vertex 0 0 10
      vertex 9.84089 11.3206 10
      vertex 9.62562 11.4714 10
    endloop
  endfacet
  facet normal 0 0 1
    outer loop
      vertex 11.9795 9.02723 10
      vertex 0 0 10
      vertex 13.5946 6.33927 10
    endloop
  endfacet
  facet normal 0 0 -1
    outer loop
      vertex 0 0 0
      vertex 11.9795 9.02723 0
      vertex 13.5946 6.33927 0
    endloop
  endfacet
  facet normal -0 0 -1
    outer loop
      vertex 11.9795 9.02723 0
      vertex 0 0 0
      vertex 9.84089 11.3206 0
    endloop
  endfacet
  facet normal -0 0 -1
    outer loop
      vertex 9.84089 11.3206 0
      vertex 0 0 0
      vertex 9.62562 11.4714 0
    endloop
  endfacet
  facet normal 0.422618 -0.906308 0
    outer loop
      vertex 0 0 5
      vertex 13.5946 6.33927 10
      vertex 0 0 10
    endloop
  endfacet
  facet normal 0.422618 -0.906308 0
    outer loop
      vertex 13.5946 6.33927 0
      vertex 0 0 5
      vertex 0 0 0
    endloop
  endfacet
  facet normal 0.422618 -0.906308 0
    outer loop
      vertex 0 0 5
      vertex 13.5946 6.33927 0
      vertex 13.5946 6.33927 10
    endloop
  endfacet
  facet normal -0.766044 0.642788 0
    outer loop
      vertex 0 0 5
      vertex 9.62562 11.4714 0
      vertex 0 0 0
    endloop
  endfacet
  facet normal -0.766044 0.642788 0
    outer loop
      vertex 9.62562 11.4714 0
      vertex 0 0 5
      vertex 9.62562 11.4714 10
    endloop
  endfacet
  facet normal -0.766044 0.642788 0
    outer loop
      vertex 9.62562 11.4714 10
      vertex 0 0 5
      vertex 0 0 10
    endloop
  endfacet
endsolid OpenSCAD_Model
